<?xml version="1.0" encoding="UTF-8" standalone="no"?>
<!DOCTYPE svg PUBLIC "-//W3C//DTD SVG 1.1//EN"
 "http://www.w3.org/Graphics/SVG/1.1/DTD/svg11.dtd">
<!-- Generated by graphviz version 2.40.1 (20161225.0304)
 -->
<!-- Title: dependencies Pages: 1 -->
<svg width="504pt" height="211pt"
 viewBox="0.00 0.00 504.00 211.00" xmlns="http://www.w3.org/2000/svg" xmlns:xlink="http://www.w3.org/1999/xlink">
<g id="graph0" class="graph" transform="scale(1 1) rotate(0) translate(4 207)">
<title>dependencies</title>
<polygon fill="#ffffff" stroke="transparent" points="-4,4 -4,-207 500,-207 500,4 -4,4"/>
<text text-anchor="start" x="227.0091" y="-42.4" font-family="sans-serif" font-weight="bold" font-size="14.00" fill="#000000">Legend</text>
<polygon fill="#ffffb3" stroke="transparent" points="14,-10 14,-30 34,-30 34,-10 14,-10"/>
<text text-anchor="start" x="37.629" y="-15.4" font-family="sans-serif" font-size="14.00" fill="#000000"> &#160;Declarations</text>
<polygon fill="#8dd3c7" stroke="transparent" points="127,-10 127,-30 147,-30 147,-10 127,-10"/>
<text text-anchor="start" x="150.7251" y="-15.4" font-family="sans-serif" font-size="14.00" fill="#000000"> &#160;Module</text>
<polygon fill="#80b1d3" stroke="transparent" points="213,-10 213,-30 233,-30 233,-10 213,-10"/>
<text text-anchor="start" x="236.7812" y="-15.4" font-family="sans-serif" font-size="14.00" fill="#000000"> &#160;Bootstrap</text>
<polygon fill="#fdb462" stroke="transparent" points="310,-10 310,-30 330,-30 330,-10 310,-10"/>
<text text-anchor="start" x="333.6732" y="-15.4" font-family="sans-serif" font-size="14.00" fill="#000000"> &#160;Providers</text>
<polygon fill="#fb8072" stroke="transparent" points="406,-10 406,-30 426,-30 426,-10 406,-10"/>
<text text-anchor="start" x="429.7258" y="-15.4" font-family="sans-serif" font-size="14.00" fill="#000000"> &#160;Exports</text>
<g id="clust1" class="cluster">
<title>cluster_AppModule</title>
<polygon fill="none" stroke="#000000" stroke-dasharray="1,5" points="20.5,-70 20.5,-195 475.5,-195 475.5,-70 20.5,-70"/>
</g>
<g id="clust3" class="cluster">
<title>cluster_AppModule_imports</title>
<polygon fill="none" stroke="#000000" points="28.5,-78 28.5,-130 467.5,-130 467.5,-78 28.5,-78"/>
</g>
<!-- LoggerModule -->
<g id="node1" class="node">
<title>LoggerModule</title>
<polygon fill="#8dd3c7" stroke="#000000" points="459.4776,-122 456.4776,-126 435.4776,-126 432.4776,-122 359.5224,-122 359.5224,-86 459.4776,-86 459.4776,-122"/>
<text text-anchor="middle" x="409.5" y="-99.8" font-family="Times,serif" font-size="14.00" fill="#000000">LoggerModule</text>
</g>
<!-- AppModule -->
<g id="node4" class="node">
<title>AppModule</title>
<polygon fill="#8dd3c7" stroke="#000000" points="324.1571,-187 321.1571,-191 300.1571,-191 297.1571,-187 240.8429,-187 240.8429,-151 324.1571,-151 324.1571,-187"/>
<text text-anchor="middle" x="282.5" y="-164.8" font-family="Times,serif" font-size="14.00" fill="#000000">AppModule</text>
</g>
<!-- LoggerModule&#45;&gt;AppModule -->
<g id="edge1" class="edge">
<title>LoggerModule&#45;&gt;AppModule</title>
<path fill="none" stroke="#000000" d="M409.5,-122.1061C409.5,-141.3391 409.5,-169 409.5,-169 409.5,-169 334.4365,-169 334.4365,-169"/>
<polygon fill="#000000" stroke="#000000" points="334.4366,-165.5001 324.4365,-169 334.4365,-172.5001 334.4366,-165.5001"/>
</g>
<!-- PreRenderModule -->
<g id="node2" class="node">
<title>PreRenderModule</title>
<polygon fill="#8dd3c7" stroke="#000000" points="341.6346,-122 338.6346,-126 317.6346,-126 314.6346,-122 223.3654,-122 223.3654,-86 341.6346,-86 341.6346,-122"/>
<text text-anchor="middle" x="282.5" y="-99.8" font-family="Times,serif" font-size="14.00" fill="#000000">PreRenderModule</text>
</g>
<!-- PreRenderModule&#45;&gt;AppModule -->
<g id="edge2" class="edge">
<title>PreRenderModule&#45;&gt;AppModule</title>
<path fill="none" stroke="#000000" d="M282.5,-122.1061C282.5,-122.1061 282.5,-140.991 282.5,-140.991"/>
<polygon fill="#000000" stroke="#000000" points="279.0001,-140.9909 282.5,-150.991 286.0001,-140.991 279.0001,-140.9909"/>
</g>
<!-- PreRendererConfigModule -->
<g id="node3" class="node">
<title>PreRendererConfigModule</title>
<polygon fill="#8dd3c7" stroke="#000000" points="204.8975,-122 201.8975,-126 180.8975,-126 177.8975,-122 36.1025,-122 36.1025,-86 204.8975,-86 204.8975,-122"/>
<text text-anchor="middle" x="120.5" y="-99.8" font-family="Times,serif" font-size="14.00" fill="#000000">PreRendererConfigModule</text>
</g>
<!-- PreRendererConfigModule&#45;&gt;AppModule -->
<g id="edge3" class="edge">
<title>PreRendererConfigModule&#45;&gt;AppModule</title>
<path fill="none" stroke="#000000" d="M120.5,-122.1061C120.5,-141.3391 120.5,-169 120.5,-169 120.5,-169 230.781,-169 230.781,-169"/>
<polygon fill="#000000" stroke="#000000" points="230.781,-172.5001 240.781,-169 230.7809,-165.5001 230.781,-172.5001"/>
</g>
</g>
</svg>
