<?xml version="1.0" encoding="UTF-8" standalone="no"?>
<!DOCTYPE svg PUBLIC "-//W3C//DTD SVG 1.1//EN"
 "http://www.w3.org/Graphics/SVG/1.1/DTD/svg11.dtd">
<!-- Generated by graphviz version 2.40.1 (20161225.0304)
 -->
<!-- Title: dependencies Pages: 1 -->
<svg width="1471pt" height="287pt"
 viewBox="0.00 0.00 1471.00 287.00" xmlns="http://www.w3.org/2000/svg" xmlns:xlink="http://www.w3.org/1999/xlink">
<g id="graph0" class="graph" transform="scale(1 1) rotate(0) translate(4 283)">
<title>dependencies</title>
<polygon fill="#ffffff" stroke="transparent" points="-4,4 -4,-283 1467,-283 1467,4 -4,4"/>
<text text-anchor="start" x="710.5091" y="-42.4" font-family="sans-serif" font-weight="bold" font-size="14.00" fill="#000000">Legend</text>
<polygon fill="#ffffb3" stroke="transparent" points="497.5,-10 497.5,-30 517.5,-30 517.5,-10 497.5,-10"/>
<text text-anchor="start" x="521.129" y="-15.4" font-family="sans-serif" font-size="14.00" fill="#000000"> &#160;Declarations</text>
<polygon fill="#8dd3c7" stroke="transparent" points="610.5,-10 610.5,-30 630.5,-30 630.5,-10 610.5,-10"/>
<text text-anchor="start" x="634.2251" y="-15.4" font-family="sans-serif" font-size="14.00" fill="#000000"> &#160;Module</text>
<polygon fill="#80b1d3" stroke="transparent" points="696.5,-10 696.5,-30 716.5,-30 716.5,-10 696.5,-10"/>
<text text-anchor="start" x="720.2812" y="-15.4" font-family="sans-serif" font-size="14.00" fill="#000000"> &#160;Bootstrap</text>
<polygon fill="#fdb462" stroke="transparent" points="793.5,-10 793.5,-30 813.5,-30 813.5,-10 793.5,-10"/>
<text text-anchor="start" x="817.1732" y="-15.4" font-family="sans-serif" font-size="14.00" fill="#000000"> &#160;Providers</text>
<polygon fill="#fb8072" stroke="transparent" points="889.5,-10 889.5,-30 909.5,-30 909.5,-10 889.5,-10"/>
<text text-anchor="start" x="913.2258" y="-15.4" font-family="sans-serif" font-size="14.00" fill="#000000"> &#160;Exports</text>
<g id="clust1" class="cluster">
<title>cluster_AppModule</title>
<polygon fill="none" stroke="#000000" stroke-dasharray="1,5" points="695,-70 695,-271 1013,-271 1013,-70 695,-70"/>
</g>
<g id="clust3" class="cluster">
<title>cluster_AppModule_imports</title>
<polygon fill="none" stroke="#000000" points="703,-78 703,-206 1005,-206 1005,-78 703,-78"/>
</g>
<g id="clust7" class="cluster">
<title>cluster_LoggerModule</title>
<polygon fill="none" stroke="#000000" stroke-dasharray="1,5" points="1021,-146 1021,-214 1315,-214 1315,-146 1021,-146"/>
</g>
<g id="clust10" class="cluster">
<title>cluster_LoggerModule_exports</title>
<polygon fill="none" stroke="#000000" points="1189,-154 1189,-206 1307,-206 1307,-154 1189,-154"/>
</g>
<g id="clust12" class="cluster">
<title>cluster_LoggerModule_providers</title>
<polygon fill="none" stroke="#000000" points="1029,-154 1029,-206 1181,-206 1181,-154 1029,-154"/>
</g>
<g id="clust13" class="cluster">
<title>cluster_PreRendererConfigModule</title>
<polygon fill="none" stroke="#000000" stroke-dasharray="1,5" points="1323,-146 1323,-214 1455,-214 1455,-146 1323,-146"/>
</g>
<g id="clust16" class="cluster">
<title>cluster_PreRendererConfigModule_exports</title>
<polygon fill="none" stroke="#000000" points="1331,-154 1331,-206 1447,-206 1447,-154 1331,-154"/>
</g>
<g id="clust19" class="cluster">
<title>cluster_PreRenderModule</title>
<polygon fill="none" stroke="#000000" stroke-dasharray="1,5" points="8,-70 8,-138 687,-138 687,-70 8,-70"/>
</g>
<g id="clust24" class="cluster">
<title>cluster_PreRenderModule_providers</title>
<polygon fill="none" stroke="#000000" points="16,-78 16,-130 679,-130 679,-78 16,-78"/>
</g>
<!-- LoggerModule -->
<g id="node1" class="node">
<title>LoggerModule</title>
<polygon fill="#8dd3c7" stroke="#000000" points="810.9776,-122 807.9776,-126 786.9776,-126 783.9776,-122 711.0224,-122 711.0224,-86 810.9776,-86 810.9776,-122"/>
<text text-anchor="middle" x="761" y="-99.8" font-family="Times,serif" font-size="14.00" fill="#000000">LoggerModule</text>
</g>
<!-- PreRenderModule -->
<g id="node2" class="node">
<title>PreRenderModule</title>
<polygon fill="#8dd3c7" stroke="#000000" points="829.1346,-198 826.1346,-202 805.1346,-202 802.1346,-198 710.8654,-198 710.8654,-162 829.1346,-162 829.1346,-198"/>
<text text-anchor="middle" x="770" y="-175.8" font-family="Times,serif" font-size="14.00" fill="#000000">PreRenderModule</text>
</g>
<!-- LoggerModule&#45;&gt;PreRenderModule -->
<g id="edge7" class="edge">
<title>LoggerModule&#45;&gt;PreRenderModule</title>
<path fill="none" stroke="#000000" d="M731.0067,-122.0109C731.0067,-122.0109 731.0067,-151.855 731.0067,-151.855"/>
<polygon fill="#000000" stroke="#000000" points="727.5068,-151.8549 731.0067,-161.855 734.5068,-151.855 727.5068,-151.8549"/>
</g>
<!-- AppModule -->
<g id="node4" class="node">
<title>AppModule</title>
<polygon fill="#8dd3c7" stroke="#000000" points="889.6571,-263 886.6571,-267 865.6571,-267 862.6571,-263 806.3429,-263 806.3429,-227 889.6571,-227 889.6571,-263"/>
<text text-anchor="middle" x="848" y="-240.8" font-family="Times,serif" font-size="14.00" fill="#000000">AppModule</text>
</g>
<!-- LoggerModule&#45;&gt;AppModule -->
<g id="edge1" class="edge">
<title>LoggerModule&#45;&gt;AppModule</title>
<path fill="none" stroke="#000000" d="M770.9978,-122.1467C770.9978,-135.7395 770.9978,-152 770.9978,-152 770.9978,-152 849.4874,-152 849.4874,-152 849.4874,-152 849.4874,-216.6262 849.4874,-216.6262"/>
<polygon fill="#000000" stroke="#000000" points="845.9875,-216.6262 849.4874,-226.6262 852.9875,-216.6262 845.9875,-216.6262"/>
</g>
<!-- LoggerService  -->
<g id="node5" class="node">
<title>LoggerService </title>
<polygon fill="#fb8072" stroke="#000000" points="1298.9054,-198 1197.0946,-198 1197.0946,-162 1298.9054,-162 1298.9054,-198"/>
<text text-anchor="middle" x="1248" y="-175.8" font-family="Times,serif" font-size="14.00" fill="#000000">LoggerService </text>
</g>
<!-- LoggerModule&#45;&gt;LoggerService  -->
<g id="edge4" class="edge">
<title>LoggerModule&#45;&gt;LoggerService </title>
<path fill="none" stroke="#000000" stroke-dasharray="5,2" d="M790.9933,-122.207C790.9933,-127.5549 790.9933,-132 790.9933,-132 790.9933,-132 1248,-132 1248,-132 1248,-132 1248,-151.8533 1248,-151.8533"/>
<polygon fill="#000000" stroke="#000000" points="1244.5001,-151.8532 1248,-161.8533 1251.5001,-151.8533 1244.5001,-151.8532"/>
</g>
<!-- PreRenderModule&#45;&gt;AppModule -->
<g id="edge2" class="edge">
<title>PreRenderModule&#45;&gt;AppModule</title>
<path fill="none" stroke="#000000" d="M817.7444,-198.1061C817.7444,-198.1061 817.7444,-216.991 817.7444,-216.991"/>
<polygon fill="#000000" stroke="#000000" points="814.2445,-216.9909 817.7444,-226.991 821.2445,-216.991 814.2445,-216.9909"/>
</g>
<!-- PreRendererConfigModule -->
<g id="node3" class="node">
<title>PreRendererConfigModule</title>
<polygon fill="#8dd3c7" stroke="#000000" points="997.3975,-122 994.3975,-126 973.3975,-126 970.3975,-122 828.6025,-122 828.6025,-86 997.3975,-86 997.3975,-122"/>
<text text-anchor="middle" x="913" y="-99.8" font-family="Times,serif" font-size="14.00" fill="#000000">PreRendererConfigModule</text>
</g>
<!-- PreRendererConfigModule&#45;&gt;PreRenderModule -->
<g id="edge8" class="edge">
<title>PreRendererConfigModule&#45;&gt;PreRenderModule</title>
<path fill="none" stroke="#000000" d="M828.4873,-104C823.1684,-104 819.8952,-104 819.8952,-104 819.8952,-104 819.8952,-151.9891 819.8952,-151.9891"/>
<polygon fill="#000000" stroke="#000000" points="816.3952,-151.989 819.8952,-161.9891 823.3952,-151.9891 816.3952,-151.989"/>
</g>
<!-- PreRendererConfigModule&#45;&gt;AppModule -->
<g id="edge3" class="edge">
<title>PreRendererConfigModule&#45;&gt;AppModule</title>
<path fill="none" stroke="#000000" d="M869.6578,-122.1446C869.6578,-122.1446 869.6578,-216.925 869.6578,-216.925"/>
<polygon fill="#000000" stroke="#000000" points="866.1579,-216.925 869.6578,-226.925 873.1579,-216.925 866.1579,-216.925"/>
</g>
<!-- ConfigService  -->
<g id="node7" class="node">
<title>ConfigService </title>
<polygon fill="#fb8072" stroke="#000000" points="1439.3661,-198 1338.6339,-198 1338.6339,-162 1439.3661,-162 1439.3661,-198"/>
<text text-anchor="middle" x="1389" y="-175.8" font-family="Times,serif" font-size="14.00" fill="#000000">ConfigService </text>
</g>
<!-- PreRendererConfigModule&#45;&gt;ConfigService  -->
<g id="edge6" class="edge">
<title>PreRendererConfigModule&#45;&gt;ConfigService </title>
<path fill="none" stroke="#000000" stroke-dasharray="5,2" d="M997.277,-104C1133.9941,-104 1389,-104 1389,-104 1389,-104 1389,-151.9891 1389,-151.9891"/>
<polygon fill="#000000" stroke="#000000" points="1385.5001,-151.989 1389,-161.9891 1392.5001,-151.9891 1385.5001,-151.989"/>
</g>
<!-- LoggerService -->
<g id="node6" class="node">
<title>LoggerService</title>
<ellipse fill="#fdb462" stroke="#000000" cx="1105" cy="-180" rx="67.7567" ry="18"/>
<text text-anchor="middle" x="1105" y="-175.8" font-family="Times,serif" font-size="14.00" fill="#000000">LoggerService</text>
</g>
<!-- LoggerService&#45;&gt;LoggerModule -->
<g id="edge5" class="edge">
<title>LoggerService&#45;&gt;LoggerModule</title>
<path fill="none" stroke="#000000" d="M1105,-161.8903C1105,-152.103 1105,-142 1105,-142 1105,-142 751.0022,-142 751.0022,-142 751.0022,-142 751.0022,-132.1097 751.0022,-132.1097"/>
<polygon fill="#000000" stroke="#000000" points="754.5023,-132.1096 751.0022,-122.1097 747.5023,-132.1097 754.5023,-132.1096"/>
</g>
<!-- OptimizerService -->
<g id="node8" class="node">
<title>OptimizerService</title>
<ellipse fill="#fdb462" stroke="#000000" cx="333" cy="-104" rx="79.2864" ry="18"/>
<text text-anchor="middle" x="333" y="-99.8" font-family="Times,serif" font-size="14.00" fill="#000000">OptimizerService</text>
</g>
<!-- OptimizerService&#45;&gt;PreRenderModule -->
<g id="edge9" class="edge">
<title>OptimizerService&#45;&gt;PreRenderModule</title>
<path fill="none" stroke="#000000" d="M333,-122.0109C333,-144.4852 333,-180 333,-180 333,-180 700.6094,-180 700.6094,-180"/>
<polygon fill="#000000" stroke="#000000" points="700.6095,-183.5001 710.6094,-180 700.6094,-176.5001 700.6095,-183.5001"/>
</g>
<!-- PersistanceLayerService -->
<g id="node9" class="node">
<title>PersistanceLayerService</title>
<ellipse fill="#fdb462" stroke="#000000" cx="130" cy="-104" rx="105.8899" ry="18"/>
<text text-anchor="middle" x="130" y="-99.8" font-family="Times,serif" font-size="14.00" fill="#000000">PersistanceLayerService</text>
</g>
<!-- PersistanceLayerService&#45;&gt;PreRenderModule -->
<g id="edge10" class="edge">
<title>PersistanceLayerService&#45;&gt;PreRenderModule</title>
<path fill="none" stroke="#000000" d="M130,-122.0263C130,-146.9773 130,-189 130,-189 130,-189 700.6516,-189 700.6516,-189"/>
<polygon fill="#000000" stroke="#000000" points="700.6516,-192.5001 710.6516,-189 700.6515,-185.5001 700.6516,-192.5001"/>
</g>
<!-- PreRenderingEngineService -->
<g id="node10" class="node">
<title>PreRenderingEngineService</title>
<ellipse fill="#fdb462" stroke="#000000" cx="551" cy="-104" rx="120.3859" ry="18"/>
<text text-anchor="middle" x="551" y="-99.8" font-family="Times,serif" font-size="14.00" fill="#000000">PreRenderingEngineService</text>
</g>
<!-- PreRenderingEngineService&#45;&gt;PreRenderModule -->
<g id="edge11" class="edge">
<title>PreRenderingEngineService&#45;&gt;PreRenderModule</title>
<path fill="none" stroke="#000000" d="M551,-122.308C551,-142.1455 551,-171 551,-171 551,-171 700.7354,-171 700.7354,-171"/>
<polygon fill="#000000" stroke="#000000" points="700.7355,-174.5001 710.7354,-171 700.7354,-167.5001 700.7355,-174.5001"/>
</g>
</g>
</svg>
